<mxfile host="app.diagrams.net" agent="Mozilla/5.0 (Macintosh; Intel Mac OS X 10_15_7) AppleWebKit/537.36 (KHTML, like Gecko) Chrome/131.0.0.0 Safari/537.36" version="26.0.2">
  <diagram id="C5RBs43oDa-KdzZeNtuy" name="Page-1">
    <mxGraphModel dx="2521" dy="1697" grid="1" gridSize="10" guides="1" tooltips="1" connect="1" arrows="1" fold="1" page="1" pageScale="1" pageWidth="827" pageHeight="1169" math="0" shadow="0">
      <root>
        <mxCell id="WIyWlLk6GJQsqaUBKTNV-0" />
        <mxCell id="WIyWlLk6GJQsqaUBKTNV-1" parent="WIyWlLk6GJQsqaUBKTNV-0" />
        <mxCell id="j0SL_xLkmIAa-dE_FRkC-13" value="zoom meeting" style="rounded=0;whiteSpace=wrap;html=1;" parent="WIyWlLk6GJQsqaUBKTNV-1" vertex="1">
          <mxGeometry x="-1040" y="460" width="110" height="50" as="geometry" />
        </mxCell>
        <mxCell id="j0SL_xLkmIAa-dE_FRkC-14" value="&lt;u&gt;time&lt;/u&gt;" style="ellipse;whiteSpace=wrap;html=1;" parent="WIyWlLk6GJQsqaUBKTNV-1" vertex="1">
          <mxGeometry x="-1090" y="540" width="70" height="30" as="geometry" />
        </mxCell>
        <mxCell id="j0SL_xLkmIAa-dE_FRkC-15" value="" style="endArrow=none;html=1;rounded=0;exitX=0.5;exitY=0;exitDx=0;exitDy=0;entryX=0;entryY=1;entryDx=0;entryDy=0;" parent="WIyWlLk6GJQsqaUBKTNV-1" source="j0SL_xLkmIAa-dE_FRkC-14" target="j0SL_xLkmIAa-dE_FRkC-13" edge="1">
          <mxGeometry width="50" height="50" relative="1" as="geometry">
            <mxPoint x="-1170" y="510" as="sourcePoint" />
            <mxPoint x="-1120" y="460" as="targetPoint" />
          </mxGeometry>
        </mxCell>
        <mxCell id="j0SL_xLkmIAa-dE_FRkC-17" value="subject" style="ellipse;whiteSpace=wrap;html=1;" parent="WIyWlLk6GJQsqaUBKTNV-1" vertex="1">
          <mxGeometry x="-1000" y="540" width="60" height="30" as="geometry" />
        </mxCell>
        <mxCell id="j0SL_xLkmIAa-dE_FRkC-18" value="" style="endArrow=none;html=1;rounded=0;entryX=0.5;entryY=1;entryDx=0;entryDy=0;exitX=0.5;exitY=0;exitDx=0;exitDy=0;" parent="WIyWlLk6GJQsqaUBKTNV-1" source="j0SL_xLkmIAa-dE_FRkC-17" target="j0SL_xLkmIAa-dE_FRkC-13" edge="1">
          <mxGeometry width="50" height="50" relative="1" as="geometry">
            <mxPoint x="-1170" y="510" as="sourcePoint" />
            <mxPoint x="-1120" y="460" as="targetPoint" />
          </mxGeometry>
        </mxCell>
        <mxCell id="j0SL_xLkmIAa-dE_FRkC-19" value="participant" style="rhombus;whiteSpace=wrap;html=1;" parent="WIyWlLk6GJQsqaUBKTNV-1" vertex="1">
          <mxGeometry x="-1190" y="450" width="80" height="70" as="geometry" />
        </mxCell>
        <mxCell id="j0SL_xLkmIAa-dE_FRkC-22" value="" style="endArrow=none;html=1;rounded=0;exitX=1;exitY=0.5;exitDx=0;exitDy=0;entryX=0;entryY=0.5;entryDx=0;entryDy=0;strokeWidth=3;" parent="WIyWlLk6GJQsqaUBKTNV-1" source="j0SL_xLkmIAa-dE_FRkC-19" target="j0SL_xLkmIAa-dE_FRkC-13" edge="1">
          <mxGeometry width="50" height="50" relative="1" as="geometry">
            <mxPoint x="-1170" y="510" as="sourcePoint" />
            <mxPoint x="-1120" y="460" as="targetPoint" />
          </mxGeometry>
        </mxCell>
        <mxCell id="j0SL_xLkmIAa-dE_FRkC-25" value="" style="endArrow=none;html=1;rounded=0;entryX=0;entryY=0.5;entryDx=0;entryDy=0;exitX=1;exitY=0.5;exitDx=0;exitDy=0;" parent="WIyWlLk6GJQsqaUBKTNV-1" source="j0SL_xLkmIAa-dE_FRkC-0" target="j0SL_xLkmIAa-dE_FRkC-19" edge="1">
          <mxGeometry width="50" height="50" relative="1" as="geometry">
            <mxPoint x="-1250" y="485" as="sourcePoint" />
            <mxPoint x="-1210" y="460" as="targetPoint" />
          </mxGeometry>
        </mxCell>
        <mxCell id="j0SL_xLkmIAa-dE_FRkC-45" value="late" style="rhombus;whiteSpace=wrap;html=1;strokeWidth=1;" parent="WIyWlLk6GJQsqaUBKTNV-1" vertex="1">
          <mxGeometry x="-1103" y="290" width="70" height="65" as="geometry" />
        </mxCell>
        <mxCell id="j0SL_xLkmIAa-dE_FRkC-47" value="" style="endArrow=none;html=1;rounded=0;entryX=0;entryY=0.5;entryDx=0;entryDy=0;exitX=1;exitY=0;exitDx=0;exitDy=0;" parent="WIyWlLk6GJQsqaUBKTNV-1" source="j0SL_xLkmIAa-dE_FRkC-0" target="j0SL_xLkmIAa-dE_FRkC-45" edge="1">
          <mxGeometry width="50" height="50" relative="1" as="geometry">
            <mxPoint x="-1320" y="375" as="sourcePoint" />
            <mxPoint x="-980" y="340" as="targetPoint" />
            <Array as="points">
              <mxPoint x="-1320" y="323" />
            </Array>
          </mxGeometry>
        </mxCell>
        <mxCell id="j0SL_xLkmIAa-dE_FRkC-49" value="the person who is late" style="edgeLabel;html=1;align=center;verticalAlign=middle;resizable=0;points=[];" parent="j0SL_xLkmIAa-dE_FRkC-47" vertex="1" connectable="0">
          <mxGeometry x="0.348" y="3" relative="1" as="geometry">
            <mxPoint x="213" y="40" as="offset" />
          </mxGeometry>
        </mxCell>
        <mxCell id="j0SL_xLkmIAa-dE_FRkC-51" value="" style="endArrow=none;html=1;rounded=0;exitX=1;exitY=0;exitDx=0;exitDy=0;" parent="WIyWlLk6GJQsqaUBKTNV-1" source="j0SL_xLkmIAa-dE_FRkC-45" target="j0SL_xLkmIAa-dE_FRkC-52" edge="1">
          <mxGeometry width="50" height="50" relative="1" as="geometry">
            <mxPoint x="-902" y="335" as="sourcePoint" />
            <mxPoint x="-872" y="343" as="targetPoint" />
          </mxGeometry>
        </mxCell>
        <mxCell id="j0SL_xLkmIAa-dE_FRkC-52" value="delay time" style="ellipse;whiteSpace=wrap;html=1;" parent="WIyWlLk6GJQsqaUBKTNV-1" vertex="1">
          <mxGeometry x="-1022" y="260" width="70" height="33" as="geometry" />
        </mxCell>
        <mxCell id="j0SL_xLkmIAa-dE_FRkC-53" value="folder" style="rounded=0;whiteSpace=wrap;html=1;" parent="WIyWlLk6GJQsqaUBKTNV-1" vertex="1">
          <mxGeometry x="-300" y="177" width="100" height="43" as="geometry" />
        </mxCell>
        <mxCell id="j0SL_xLkmIAa-dE_FRkC-54" value="&lt;u&gt;folder ID&lt;/u&gt;" style="ellipse;whiteSpace=wrap;html=1;" parent="WIyWlLk6GJQsqaUBKTNV-1" vertex="1">
          <mxGeometry x="-210" y="260" width="70" height="40" as="geometry" />
        </mxCell>
        <mxCell id="j0SL_xLkmIAa-dE_FRkC-55" value="" style="endArrow=none;html=1;rounded=0;entryX=1;entryY=1;entryDx=0;entryDy=0;exitX=0.5;exitY=0;exitDx=0;exitDy=0;" parent="WIyWlLk6GJQsqaUBKTNV-1" source="j0SL_xLkmIAa-dE_FRkC-54" target="j0SL_xLkmIAa-dE_FRkC-53" edge="1">
          <mxGeometry width="50" height="50" relative="1" as="geometry">
            <mxPoint x="-150" y="310" as="sourcePoint" />
            <mxPoint x="-100" y="260" as="targetPoint" />
          </mxGeometry>
        </mxCell>
        <mxCell id="j0SL_xLkmIAa-dE_FRkC-56" value="folder name" style="ellipse;whiteSpace=wrap;html=1;" parent="WIyWlLk6GJQsqaUBKTNV-1" vertex="1">
          <mxGeometry x="-290" y="260" width="70" height="40" as="geometry" />
        </mxCell>
        <mxCell id="j0SL_xLkmIAa-dE_FRkC-57" value="" style="endArrow=none;html=1;rounded=0;entryX=0.5;entryY=1;entryDx=0;entryDy=0;exitX=0.5;exitY=0;exitDx=0;exitDy=0;" parent="WIyWlLk6GJQsqaUBKTNV-1" source="j0SL_xLkmIAa-dE_FRkC-56" target="j0SL_xLkmIAa-dE_FRkC-53" edge="1">
          <mxGeometry width="50" height="50" relative="1" as="geometry">
            <mxPoint x="-150" y="310" as="sourcePoint" />
            <mxPoint x="-100" y="260" as="targetPoint" />
          </mxGeometry>
        </mxCell>
        <mxCell id="j0SL_xLkmIAa-dE_FRkC-58" value="creation date" style="ellipse;whiteSpace=wrap;html=1;" parent="WIyWlLk6GJQsqaUBKTNV-1" vertex="1">
          <mxGeometry x="-380" y="260" width="70" height="40" as="geometry" />
        </mxCell>
        <mxCell id="j0SL_xLkmIAa-dE_FRkC-59" value="" style="endArrow=none;html=1;rounded=0;entryX=0;entryY=1;entryDx=0;entryDy=0;exitX=0.5;exitY=0;exitDx=0;exitDy=0;" parent="WIyWlLk6GJQsqaUBKTNV-1" source="j0SL_xLkmIAa-dE_FRkC-58" target="j0SL_xLkmIAa-dE_FRkC-53" edge="1">
          <mxGeometry width="50" height="50" relative="1" as="geometry">
            <mxPoint x="-150" y="310" as="sourcePoint" />
            <mxPoint x="-100" y="260" as="targetPoint" />
          </mxGeometry>
        </mxCell>
        <mxCell id="j0SL_xLkmIAa-dE_FRkC-61" value="sub-folder" style="rhombus;whiteSpace=wrap;html=1;" parent="WIyWlLk6GJQsqaUBKTNV-1" vertex="1">
          <mxGeometry x="-170" y="114" width="70" height="63" as="geometry" />
        </mxCell>
        <mxCell id="j0SL_xLkmIAa-dE_FRkC-62" value="" style="endArrow=none;html=1;rounded=0;exitX=0.5;exitY=0;exitDx=0;exitDy=0;entryX=0;entryY=0.5;entryDx=0;entryDy=0;" parent="WIyWlLk6GJQsqaUBKTNV-1" source="j0SL_xLkmIAa-dE_FRkC-53" target="j0SL_xLkmIAa-dE_FRkC-61" edge="1">
          <mxGeometry width="50" height="50" relative="1" as="geometry">
            <mxPoint x="-260" y="185" as="sourcePoint" />
            <mxPoint x="-210" y="135" as="targetPoint" />
            <Array as="points">
              <mxPoint x="-250" y="146" />
            </Array>
          </mxGeometry>
        </mxCell>
        <mxCell id="j0SL_xLkmIAa-dE_FRkC-63" value="" style="endArrow=none;html=1;rounded=0;entryX=0.5;entryY=1;entryDx=0;entryDy=0;exitX=1;exitY=0.5;exitDx=0;exitDy=0;" parent="WIyWlLk6GJQsqaUBKTNV-1" source="j0SL_xLkmIAa-dE_FRkC-53" target="j0SL_xLkmIAa-dE_FRkC-61" edge="1">
          <mxGeometry width="50" height="50" relative="1" as="geometry">
            <mxPoint x="-190" y="270" as="sourcePoint" />
            <mxPoint x="-140" y="220" as="targetPoint" />
            <Array as="points">
              <mxPoint x="-135" y="199" />
            </Array>
          </mxGeometry>
        </mxCell>
        <mxCell id="j0SL_xLkmIAa-dE_FRkC-64" value="is parent of" style="edgeLabel;html=1;align=center;verticalAlign=middle;resizable=0;points=[];" parent="j0SL_xLkmIAa-dE_FRkC-63" vertex="1" connectable="0">
          <mxGeometry x="-0.0459" relative="1" as="geometry">
            <mxPoint x="-52" y="-63" as="offset" />
          </mxGeometry>
        </mxCell>
        <mxCell id="j0SL_xLkmIAa-dE_FRkC-65" value="is child of" style="edgeLabel;html=1;align=center;verticalAlign=middle;resizable=0;points=[];" parent="j0SL_xLkmIAa-dE_FRkC-63" vertex="1" connectable="0">
          <mxGeometry x="-0.0227" y="-1" relative="1" as="geometry">
            <mxPoint x="-3" y="-9" as="offset" />
          </mxGeometry>
        </mxCell>
        <mxCell id="j0SL_xLkmIAa-dE_FRkC-71" value="" style="group" parent="WIyWlLk6GJQsqaUBKTNV-1" vertex="1" connectable="0">
          <mxGeometry x="-755" y="85" width="80" height="40" as="geometry" />
        </mxCell>
        <mxCell id="j0SL_xLkmIAa-dE_FRkC-72" value="&lt;u&gt;file suffix&lt;/u&gt;" style="ellipse;whiteSpace=wrap;html=1;" parent="j0SL_xLkmIAa-dE_FRkC-71" vertex="1">
          <mxGeometry width="80" height="40" as="geometry" />
        </mxCell>
        <mxCell id="j0SL_xLkmIAa-dE_FRkC-77" value="" style="endArrow=none;html=1;rounded=0;exitX=0.5;exitY=0;exitDx=0;exitDy=0;entryX=0;entryY=1;entryDx=0;entryDy=0;" parent="WIyWlLk6GJQsqaUBKTNV-1" source="j0SL_xLkmIAa-dE_FRkC-72" target="dcjSAABYrTXb6upPmTin-0" edge="1">
          <mxGeometry width="50" height="50" relative="1" as="geometry">
            <mxPoint x="-730" y="139" as="sourcePoint" />
            <mxPoint x="-750" y="59" as="targetPoint" />
          </mxGeometry>
        </mxCell>
        <mxCell id="j0SL_xLkmIAa-dE_FRkC-79" value="location" style="rhombus;whiteSpace=wrap;html=1;strokeWidth=3;" parent="WIyWlLk6GJQsqaUBKTNV-1" vertex="1">
          <mxGeometry x="-470" y="168.5" width="70" height="60" as="geometry" />
        </mxCell>
        <mxCell id="j0SL_xLkmIAa-dE_FRkC-81" value="" style="endArrow=none;html=1;rounded=0;entryX=1;entryY=0.5;entryDx=0;entryDy=0;exitX=0;exitY=0.5;exitDx=0;exitDy=0;" parent="WIyWlLk6GJQsqaUBKTNV-1" source="j0SL_xLkmIAa-dE_FRkC-53" target="j0SL_xLkmIAa-dE_FRkC-79" edge="1">
          <mxGeometry width="50" height="50" relative="1" as="geometry">
            <mxPoint x="-410" y="300" as="sourcePoint" />
            <mxPoint x="-360" y="250" as="targetPoint" />
          </mxGeometry>
        </mxCell>
        <mxCell id="j0SL_xLkmIAa-dE_FRkC-82" value="" style="endArrow=none;html=1;rounded=0;entryX=0.5;entryY=1;entryDx=0;entryDy=0;exitX=1;exitY=0.5;exitDx=0;exitDy=0;" parent="WIyWlLk6GJQsqaUBKTNV-1" edge="1">
          <mxGeometry width="50" height="50" relative="1" as="geometry">
            <mxPoint x="-644.9999999999998" y="-120" as="sourcePoint" />
            <mxPoint x="-644.9999999999998" y="-220" as="targetPoint" />
          </mxGeometry>
        </mxCell>
        <mxCell id="j0SL_xLkmIAa-dE_FRkC-85" value="IS A" style="triangle;whiteSpace=wrap;html=1;direction=north;" parent="WIyWlLk6GJQsqaUBKTNV-1" vertex="1">
          <mxGeometry x="-666" y="320" width="80" height="60" as="geometry" />
        </mxCell>
        <mxCell id="j0SL_xLkmIAa-dE_FRkC-86" value="" style="endArrow=none;html=1;rounded=0;entryX=0;entryY=0.75;entryDx=0;entryDy=0;exitX=0.5;exitY=0;exitDx=0;exitDy=0;" parent="WIyWlLk6GJQsqaUBKTNV-1" source="j0SL_xLkmIAa-dE_FRkC-89" target="j0SL_xLkmIAa-dE_FRkC-85" edge="1">
          <mxGeometry width="50" height="50" relative="1" as="geometry">
            <mxPoint x="-501" y="360" as="sourcePoint" />
            <mxPoint x="-451" y="310" as="targetPoint" />
          </mxGeometry>
        </mxCell>
        <mxCell id="j0SL_xLkmIAa-dE_FRkC-88" value="" style="endArrow=none;html=1;rounded=0;entryX=0;entryY=0.25;entryDx=0;entryDy=0;exitX=0.5;exitY=0;exitDx=0;exitDy=0;" parent="WIyWlLk6GJQsqaUBKTNV-1" source="j0SL_xLkmIAa-dE_FRkC-90" target="j0SL_xLkmIAa-dE_FRkC-85" edge="1">
          <mxGeometry width="50" height="50" relative="1" as="geometry">
            <mxPoint x="-681" y="440" as="sourcePoint" />
            <mxPoint x="-451" y="310" as="targetPoint" />
          </mxGeometry>
        </mxCell>
        <mxCell id="j0SL_xLkmIAa-dE_FRkC-89" value="assignment file" style="rounded=0;whiteSpace=wrap;html=1;" parent="WIyWlLk6GJQsqaUBKTNV-1" vertex="1">
          <mxGeometry x="-611" y="430" width="70" height="40" as="geometry" />
        </mxCell>
        <mxCell id="j0SL_xLkmIAa-dE_FRkC-90" value="important file" style="rounded=0;whiteSpace=wrap;html=1;" parent="WIyWlLk6GJQsqaUBKTNV-1" vertex="1">
          <mxGeometry x="-716" y="430" width="70" height="40" as="geometry" />
        </mxCell>
        <mxCell id="j0SL_xLkmIAa-dE_FRkC-92" value="overlap" style="text;html=1;align=center;verticalAlign=middle;resizable=0;points=[];autosize=1;strokeColor=none;fillColor=none;" parent="WIyWlLk6GJQsqaUBKTNV-1" vertex="1">
          <mxGeometry x="-656" y="375" width="60" height="30" as="geometry" />
        </mxCell>
        <mxCell id="j0SL_xLkmIAa-dE_FRkC-93" value="" style="endArrow=none;html=1;rounded=0;entryX=0.25;entryY=1;entryDx=0;entryDy=0;exitX=0.5;exitY=0;exitDx=0;exitDy=0;" parent="WIyWlLk6GJQsqaUBKTNV-1" source="j0SL_xLkmIAa-dE_FRkC-94" target="j0SL_xLkmIAa-dE_FRkC-90" edge="1">
          <mxGeometry width="50" height="50" relative="1" as="geometry">
            <mxPoint x="-531" y="390" as="sourcePoint" />
            <mxPoint x="-481" y="340" as="targetPoint" />
          </mxGeometry>
        </mxCell>
        <mxCell id="j0SL_xLkmIAa-dE_FRkC-94" value="total time" style="ellipse;whiteSpace=wrap;html=1;" parent="WIyWlLk6GJQsqaUBKTNV-1" vertex="1">
          <mxGeometry x="-751" y="500" width="70" height="40" as="geometry" />
        </mxCell>
        <mxCell id="j0SL_xLkmIAa-dE_FRkC-95" value="is name in format" style="ellipse;whiteSpace=wrap;html=1;" parent="WIyWlLk6GJQsqaUBKTNV-1" vertex="1">
          <mxGeometry x="-636" y="500" width="70" height="40" as="geometry" />
        </mxCell>
        <mxCell id="j0SL_xLkmIAa-dE_FRkC-96" value="" style="endArrow=none;html=1;rounded=0;entryX=0.25;entryY=1;entryDx=0;entryDy=0;exitX=0.5;exitY=0;exitDx=0;exitDy=0;" parent="WIyWlLk6GJQsqaUBKTNV-1" source="j0SL_xLkmIAa-dE_FRkC-95" target="j0SL_xLkmIAa-dE_FRkC-89" edge="1">
          <mxGeometry width="50" height="50" relative="1" as="geometry">
            <mxPoint x="-531" y="450" as="sourcePoint" />
            <mxPoint x="-481" y="400" as="targetPoint" />
          </mxGeometry>
        </mxCell>
        <mxCell id="j0SL_xLkmIAa-dE_FRkC-97" value="modified" style="rhombus;whiteSpace=wrap;html=1;" parent="WIyWlLk6GJQsqaUBKTNV-1" vertex="1">
          <mxGeometry x="-840" y="410" width="70" height="60" as="geometry" />
        </mxCell>
        <mxCell id="j0SL_xLkmIAa-dE_FRkC-98" value="" style="endArrow=none;html=1;rounded=0;exitX=1;exitY=0.5;exitDx=0;exitDy=0;entryX=0;entryY=0.25;entryDx=0;entryDy=0;strokeWidth=3;" parent="WIyWlLk6GJQsqaUBKTNV-1" source="j0SL_xLkmIAa-dE_FRkC-97" target="j0SL_xLkmIAa-dE_FRkC-90" edge="1">
          <mxGeometry width="50" height="50" relative="1" as="geometry">
            <mxPoint x="-650" y="420" as="sourcePoint" />
            <mxPoint x="-600" y="370" as="targetPoint" />
          </mxGeometry>
        </mxCell>
        <mxCell id="j0SL_xLkmIAa-dE_FRkC-103" value="given access to file" style="rhombus;whiteSpace=wrap;html=1;strokeWidth=1;" parent="WIyWlLk6GJQsqaUBKTNV-1" vertex="1">
          <mxGeometry x="-1030" y="168.5" width="60" height="60" as="geometry" />
        </mxCell>
        <mxCell id="j0SL_xLkmIAa-dE_FRkC-104" value="" style="endArrow=none;html=1;rounded=0;exitX=1;exitY=0.5;exitDx=0;exitDy=0;entryX=0;entryY=0.5;entryDx=0;entryDy=0;" parent="WIyWlLk6GJQsqaUBKTNV-1" source="j0SL_xLkmIAa-dE_FRkC-103" target="dcjSAABYrTXb6upPmTin-0" edge="1">
          <mxGeometry width="50" height="50" relative="1" as="geometry">
            <mxPoint x="-830" y="360" as="sourcePoint" />
            <mxPoint x="-810" y="199" as="targetPoint" />
            <Array as="points">
              <mxPoint x="-810" y="200" />
              <mxPoint x="-810" y="60" />
            </Array>
          </mxGeometry>
        </mxCell>
        <mxCell id="j0SL_xLkmIAa-dE_FRkC-105" value="" style="endArrow=none;html=1;rounded=0;entryX=0;entryY=0.5;entryDx=0;entryDy=0;exitX=0.75;exitY=0;exitDx=0;exitDy=0;" parent="WIyWlLk6GJQsqaUBKTNV-1" source="j0SL_xLkmIAa-dE_FRkC-0" target="j0SL_xLkmIAa-dE_FRkC-103" edge="1">
          <mxGeometry width="50" height="50" relative="1" as="geometry">
            <mxPoint x="-1240" y="200" as="sourcePoint" />
            <mxPoint x="-780" y="310" as="targetPoint" />
            <Array as="points">
              <mxPoint x="-1345" y="200" />
            </Array>
          </mxGeometry>
        </mxCell>
        <mxCell id="j0SL_xLkmIAa-dE_FRkC-126" value="" style="endArrow=none;html=1;rounded=0;exitX=0.5;exitY=0;exitDx=0;exitDy=0;strokeWidth=3;" parent="WIyWlLk6GJQsqaUBKTNV-1" source="j0SL_xLkmIAa-dE_FRkC-103" edge="1">
          <mxGeometry width="50" height="50" relative="1" as="geometry">
            <mxPoint x="-1030" y="190" as="sourcePoint" />
            <mxPoint x="-1000" y="130" as="targetPoint" />
          </mxGeometry>
        </mxCell>
        <mxCell id="j0SL_xLkmIAa-dE_FRkC-132" value="(1) phone number has 12 digits ands starts with the sequence 9725: this can be handled in DDL." style="text;html=1;align=center;verticalAlign=middle;resizable=0;points=[];autosize=1;strokeColor=none;fillColor=none;" parent="WIyWlLk6GJQsqaUBKTNV-1" vertex="1">
          <mxGeometry x="-1545" y="610" width="540" height="30" as="geometry" />
        </mxCell>
        <mxCell id="j0SL_xLkmIAa-dE_FRkC-134" value="(2)" style="text;html=1;align=center;verticalAlign=middle;resizable=0;points=[];autosize=1;strokeColor=none;fillColor=none;" parent="WIyWlLk6GJQsqaUBKTNV-1" vertex="1">
          <mxGeometry x="-760" y="115" width="40" height="30" as="geometry" />
        </mxCell>
        <mxCell id="j0SL_xLkmIAa-dE_FRkC-135" value="(2) file suffix is 3 characters long: it can be handled in DDL." style="text;html=1;align=center;verticalAlign=middle;resizable=0;points=[];autosize=1;strokeColor=none;fillColor=none;" parent="WIyWlLk6GJQsqaUBKTNV-1" vertex="1">
          <mxGeometry x="-1545" y="640" width="340" height="30" as="geometry" />
        </mxCell>
        <mxCell id="j0SL_xLkmIAa-dE_FRkC-136" value="(3)" style="text;html=1;align=center;verticalAlign=middle;resizable=0;points=[];autosize=1;strokeColor=none;fillColor=none;" parent="WIyWlLk6GJQsqaUBKTNV-1" vertex="1">
          <mxGeometry x="-596" y="530" width="40" height="30" as="geometry" />
        </mxCell>
        <mxCell id="j0SL_xLkmIAa-dE_FRkC-137" value="(3) this attribute is a boolean attribute: it can be handled in DDL" style="text;html=1;align=center;verticalAlign=middle;resizable=0;points=[];autosize=1;strokeColor=none;fillColor=none;" parent="WIyWlLk6GJQsqaUBKTNV-1" vertex="1">
          <mxGeometry x="-1545" y="670" width="360" height="30" as="geometry" />
        </mxCell>
        <mxCell id="j0SL_xLkmIAa-dE_FRkC-139" value="(4) danger level is a continues number that must be equal or greater than 0 and equal or lower than 10" style="text;html=1;align=center;verticalAlign=middle;resizable=0;points=[];autosize=1;strokeColor=none;fillColor=none;" parent="WIyWlLk6GJQsqaUBKTNV-1" vertex="1">
          <mxGeometry x="-1545" y="700" width="570" height="30" as="geometry" />
        </mxCell>
        <mxCell id="j0SL_xLkmIAa-dE_FRkC-0" value="Contact" style="rounded=0;whiteSpace=wrap;html=1;" parent="WIyWlLk6GJQsqaUBKTNV-1" vertex="1">
          <mxGeometry x="-1420" y="460" width="100" height="50" as="geometry" />
        </mxCell>
        <mxCell id="j0SL_xLkmIAa-dE_FRkC-1" value="" style="endArrow=none;html=1;rounded=0;exitX=0;exitY=1;exitDx=0;exitDy=0;" parent="WIyWlLk6GJQsqaUBKTNV-1" source="j0SL_xLkmIAa-dE_FRkC-0" target="j0SL_xLkmIAa-dE_FRkC-2" edge="1">
          <mxGeometry width="50" height="50" relative="1" as="geometry">
            <mxPoint x="-1430" y="560" as="sourcePoint" />
            <mxPoint x="-1420" y="510" as="targetPoint" />
          </mxGeometry>
        </mxCell>
        <mxCell id="j0SL_xLkmIAa-dE_FRkC-2" value="&lt;u&gt;name&lt;/u&gt;" style="ellipse;whiteSpace=wrap;html=1;" parent="WIyWlLk6GJQsqaUBKTNV-1" vertex="1">
          <mxGeometry x="-1470" y="540" width="60" height="30" as="geometry" />
        </mxCell>
        <mxCell id="j0SL_xLkmIAa-dE_FRkC-3" value="" style="endArrow=none;html=1;rounded=0;entryX=1;entryY=1;entryDx=0;entryDy=0;exitX=0.5;exitY=0;exitDx=0;exitDy=0;" parent="WIyWlLk6GJQsqaUBKTNV-1" source="j0SL_xLkmIAa-dE_FRkC-4" target="j0SL_xLkmIAa-dE_FRkC-0" edge="1">
          <mxGeometry width="50" height="50" relative="1" as="geometry">
            <mxPoint x="-1390" y="540" as="sourcePoint" />
            <mxPoint x="-1340" y="490" as="targetPoint" />
          </mxGeometry>
        </mxCell>
        <mxCell id="j0SL_xLkmIAa-dE_FRkC-4" value="address" style="ellipse;whiteSpace=wrap;html=1;" parent="WIyWlLk6GJQsqaUBKTNV-1" vertex="1">
          <mxGeometry x="-1330" y="540" width="63" height="30" as="geometry" />
        </mxCell>
        <mxCell id="j0SL_xLkmIAa-dE_FRkC-5" value="phone number" style="ellipse;whiteSpace=wrap;html=1;" parent="WIyWlLk6GJQsqaUBKTNV-1" vertex="1">
          <mxGeometry x="-1400" y="540" width="60" height="30" as="geometry" />
        </mxCell>
        <mxCell id="j0SL_xLkmIAa-dE_FRkC-6" value="" style="endArrow=none;html=1;rounded=0;entryX=0.5;entryY=1;entryDx=0;entryDy=0;exitX=0.5;exitY=0;exitDx=0;exitDy=0;" parent="WIyWlLk6GJQsqaUBKTNV-1" source="j0SL_xLkmIAa-dE_FRkC-5" target="j0SL_xLkmIAa-dE_FRkC-0" edge="1">
          <mxGeometry width="50" height="50" relative="1" as="geometry">
            <mxPoint x="-1370" y="540" as="sourcePoint" />
            <mxPoint x="-1340" y="490" as="targetPoint" />
          </mxGeometry>
        </mxCell>
        <mxCell id="j0SL_xLkmIAa-dE_FRkC-8" value="" style="endArrow=none;html=1;rounded=0;entryX=0.5;entryY=0;entryDx=0;entryDy=0;exitX=1;exitY=0.5;exitDx=0;exitDy=0;" parent="WIyWlLk6GJQsqaUBKTNV-1" source="j0SL_xLkmIAa-dE_FRkC-7" target="j0SL_xLkmIAa-dE_FRkC-0" edge="1">
          <mxGeometry width="50" height="50" relative="1" as="geometry">
            <mxPoint x="-1390" y="600" as="sourcePoint" />
            <mxPoint x="-1340" y="550" as="targetPoint" />
            <Array as="points">
              <mxPoint x="-1370" y="415" />
            </Array>
          </mxGeometry>
        </mxCell>
        <mxCell id="j0SL_xLkmIAa-dE_FRkC-11" value="is a contact of" style="edgeLabel;html=1;align=center;verticalAlign=middle;resizable=0;points=[];" parent="j0SL_xLkmIAa-dE_FRkC-8" vertex="1" connectable="0">
          <mxGeometry x="-0.3757" y="1" relative="1" as="geometry">
            <mxPoint y="-7" as="offset" />
          </mxGeometry>
        </mxCell>
        <mxCell id="j0SL_xLkmIAa-dE_FRkC-10" value="" style="endArrow=none;html=1;rounded=0;entryX=0.5;entryY=1;entryDx=0;entryDy=0;exitX=0;exitY=0.5;exitDx=0;exitDy=0;" parent="WIyWlLk6GJQsqaUBKTNV-1" source="j0SL_xLkmIAa-dE_FRkC-0" target="j0SL_xLkmIAa-dE_FRkC-7" edge="1">
          <mxGeometry width="50" height="50" relative="1" as="geometry">
            <mxPoint x="-1380" y="550" as="sourcePoint" />
            <mxPoint x="-1330" y="500" as="targetPoint" />
            <Array as="points">
              <mxPoint x="-1475" y="485" />
            </Array>
          </mxGeometry>
        </mxCell>
        <mxCell id="j0SL_xLkmIAa-dE_FRkC-12" value="has the contact" style="edgeLabel;html=1;align=center;verticalAlign=middle;resizable=0;points=[];" parent="j0SL_xLkmIAa-dE_FRkC-10" vertex="1" connectable="0">
          <mxGeometry x="0.1227" relative="1" as="geometry">
            <mxPoint x="10" y="7" as="offset" />
          </mxGeometry>
        </mxCell>
        <mxCell id="GMhLTBILV3bfu7xbNfCC-0" value="" style="swimlane;startSize=0;container=0;" parent="WIyWlLk6GJQsqaUBKTNV-1" vertex="1">
          <mxGeometry x="-1540" y="370" width="630" height="210" as="geometry" />
        </mxCell>
        <mxCell id="GMhLTBILV3bfu7xbNfCC-1" value="" style="endArrow=none;html=1;rounded=0;entryX=0.5;entryY=1;entryDx=0;entryDy=0;exitX=1;exitY=0.5;exitDx=0;exitDy=0;" parent="WIyWlLk6GJQsqaUBKTNV-1" source="j0SL_xLkmIAa-dE_FRkC-13" target="j0SL_xLkmIAa-dE_FRkC-97" edge="1">
          <mxGeometry width="50" height="50" relative="1" as="geometry">
            <mxPoint x="-860" y="550" as="sourcePoint" />
            <mxPoint x="-810" y="500" as="targetPoint" />
            <Array as="points">
              <mxPoint x="-805" y="485" />
            </Array>
          </mxGeometry>
        </mxCell>
        <mxCell id="GMhLTBILV3bfu7xbNfCC-2" value="the person who caused the delay" style="text;html=1;align=center;verticalAlign=middle;resizable=0;points=[];autosize=1;strokeColor=none;fillColor=none;rotation=0;" parent="WIyWlLk6GJQsqaUBKTNV-1" vertex="1">
          <mxGeometry x="-1300" y="296" width="200" height="30" as="geometry" />
        </mxCell>
        <mxCell id="GMhLTBILV3bfu7xbNfCC-3" value="" style="endArrow=classic;html=1;rounded=0;exitX=0.75;exitY=0;exitDx=0;exitDy=0;entryX=0.5;entryY=1;entryDx=0;entryDy=0;" parent="WIyWlLk6GJQsqaUBKTNV-1" source="GMhLTBILV3bfu7xbNfCC-0" target="j0SL_xLkmIAa-dE_FRkC-45" edge="1">
          <mxGeometry width="50" height="50" relative="1" as="geometry">
            <mxPoint x="-1059.5000000000002" y="330" as="sourcePoint" />
            <mxPoint x="-872" y="310" as="targetPoint" />
            <Array as="points" />
          </mxGeometry>
        </mxCell>
        <mxCell id="j0SL_xLkmIAa-dE_FRkC-7" value="shared contacts" style="rhombus;whiteSpace=wrap;html=1;" parent="WIyWlLk6GJQsqaUBKTNV-1" vertex="1">
          <mxGeometry x="-1510" y="380" width="70" height="70" as="geometry" />
        </mxCell>
        <mxCell id="j0SL_xLkmIAa-dE_FRkC-101" value="access" style="rounded=0;whiteSpace=wrap;html=1;strokeWidth=1;" parent="WIyWlLk6GJQsqaUBKTNV-1" vertex="1">
          <mxGeometry x="-1045" y="89" width="80" height="40" as="geometry" />
        </mxCell>
        <mxCell id="j0SL_xLkmIAa-dE_FRkC-107" value="&lt;u&gt;date&lt;/u&gt;" style="ellipse;whiteSpace=wrap;html=1;" parent="WIyWlLk6GJQsqaUBKTNV-1" vertex="1">
          <mxGeometry x="-1100" y="35" width="60" height="30" as="geometry" />
        </mxCell>
        <mxCell id="j0SL_xLkmIAa-dE_FRkC-108" value="" style="endArrow=none;html=1;rounded=0;entryX=0.5;entryY=1;entryDx=0;entryDy=0;exitX=0;exitY=0;exitDx=0;exitDy=0;" parent="WIyWlLk6GJQsqaUBKTNV-1" source="j0SL_xLkmIAa-dE_FRkC-101" target="j0SL_xLkmIAa-dE_FRkC-107" edge="1">
          <mxGeometry width="50" height="50" relative="1" as="geometry">
            <mxPoint x="-840" y="265" as="sourcePoint" />
            <mxPoint x="-790" y="215" as="targetPoint" />
          </mxGeometry>
        </mxCell>
        <mxCell id="j0SL_xLkmIAa-dE_FRkC-109" value="cause" style="ellipse;whiteSpace=wrap;html=1;" parent="WIyWlLk6GJQsqaUBKTNV-1" vertex="1">
          <mxGeometry x="-980" y="35" width="60" height="30" as="geometry" />
        </mxCell>
        <mxCell id="j0SL_xLkmIAa-dE_FRkC-110" value="" style="endArrow=none;html=1;rounded=0;entryX=0.5;entryY=1;entryDx=0;entryDy=0;exitX=1;exitY=0;exitDx=0;exitDy=0;" parent="WIyWlLk6GJQsqaUBKTNV-1" source="j0SL_xLkmIAa-dE_FRkC-101" target="j0SL_xLkmIAa-dE_FRkC-109" edge="1">
          <mxGeometry width="50" height="50" relative="1" as="geometry">
            <mxPoint x="-840" y="265" as="sourcePoint" />
            <mxPoint x="-790" y="215" as="targetPoint" />
          </mxGeometry>
        </mxCell>
        <mxCell id="j0SL_xLkmIAa-dE_FRkC-116" value="access exception" style="rhombus;whiteSpace=wrap;html=1;strokeWidth=3;" parent="WIyWlLk6GJQsqaUBKTNV-1" vertex="1">
          <mxGeometry x="-1220" y="75" width="70" height="70" as="geometry" />
        </mxCell>
        <mxCell id="j0SL_xLkmIAa-dE_FRkC-117" value="exception" style="rounded=0;whiteSpace=wrap;html=1;strokeWidth=3;" parent="WIyWlLk6GJQsqaUBKTNV-1" vertex="1">
          <mxGeometry x="-1380" y="90" width="90" height="40" as="geometry" />
        </mxCell>
        <mxCell id="j0SL_xLkmIAa-dE_FRkC-123" value="" style="endArrow=none;html=1;rounded=0;entryX=0;entryY=0.5;entryDx=0;entryDy=0;exitX=1;exitY=0.5;exitDx=0;exitDy=0;" parent="WIyWlLk6GJQsqaUBKTNV-1" source="j0SL_xLkmIAa-dE_FRkC-116" target="j0SL_xLkmIAa-dE_FRkC-101" edge="1">
          <mxGeometry width="50" height="50" relative="1" as="geometry">
            <mxPoint x="-1040" y="305" as="sourcePoint" />
            <mxPoint x="-990" y="255" as="targetPoint" />
          </mxGeometry>
        </mxCell>
        <mxCell id="j0SL_xLkmIAa-dE_FRkC-129" value="" style="endArrow=none;html=1;rounded=0;entryX=0.5;entryY=1;entryDx=0;entryDy=0;exitX=0.25;exitY=0;exitDx=0;exitDy=0;" parent="WIyWlLk6GJQsqaUBKTNV-1" source="j0SL_xLkmIAa-dE_FRkC-117" target="j0SL_xLkmIAa-dE_FRkC-128" edge="1">
          <mxGeometry width="50" height="50" relative="1" as="geometry">
            <mxPoint x="-1085" y="331" as="sourcePoint" />
            <mxPoint x="-1035" y="281" as="targetPoint" />
          </mxGeometry>
        </mxCell>
        <mxCell id="j0SL_xLkmIAa-dE_FRkC-130" value="" style="endArrow=none;html=1;rounded=0;entryX=0.5;entryY=1;entryDx=0;entryDy=0;exitX=0.75;exitY=0;exitDx=0;exitDy=0;" parent="WIyWlLk6GJQsqaUBKTNV-1" source="j0SL_xLkmIAa-dE_FRkC-117" target="j0SL_xLkmIAa-dE_FRkC-127" edge="1">
          <mxGeometry width="50" height="50" relative="1" as="geometry">
            <mxPoint x="-1085" y="331" as="sourcePoint" />
            <mxPoint x="-1035" y="281" as="targetPoint" />
          </mxGeometry>
        </mxCell>
        <mxCell id="j0SL_xLkmIAa-dE_FRkC-127" value="exception ID" style="ellipse;whiteSpace=wrap;html=1;" parent="WIyWlLk6GJQsqaUBKTNV-1" vertex="1">
          <mxGeometry x="-1325" y="35" width="95" height="40" as="geometry" />
        </mxCell>
        <mxCell id="j0SL_xLkmIAa-dE_FRkC-128" value="danger level" style="ellipse;whiteSpace=wrap;html=1;" parent="WIyWlLk6GJQsqaUBKTNV-1" vertex="1">
          <mxGeometry x="-1406" y="30" width="66" height="35" as="geometry" />
        </mxCell>
        <mxCell id="j0SL_xLkmIAa-dE_FRkC-131" value="" style="endArrow=none;dashed=1;html=1;rounded=0;" parent="WIyWlLk6GJQsqaUBKTNV-1" edge="1">
          <mxGeometry width="50" height="50" relative="1" as="geometry">
            <mxPoint x="-1312.5" y="64.38" as="sourcePoint" />
            <mxPoint x="-1242.5" y="64.38" as="targetPoint" />
          </mxGeometry>
        </mxCell>
        <mxCell id="j0SL_xLkmIAa-dE_FRkC-138" value="(4)" style="text;html=1;align=center;verticalAlign=middle;resizable=0;points=[];autosize=1;strokeColor=none;fillColor=none;" parent="WIyWlLk6GJQsqaUBKTNV-1" vertex="1">
          <mxGeometry x="-1420" y="51" width="40" height="30" as="geometry" />
        </mxCell>
        <mxCell id="GMhLTBILV3bfu7xbNfCC-4" value="" style="endArrow=classic;html=1;rounded=0;entryX=0;entryY=0.5;entryDx=0;entryDy=0;exitX=1;exitY=0.5;exitDx=0;exitDy=0;strokeWidth=3;" parent="WIyWlLk6GJQsqaUBKTNV-1" source="j0SL_xLkmIAa-dE_FRkC-117" target="j0SL_xLkmIAa-dE_FRkC-116" edge="1">
          <mxGeometry width="50" height="50" relative="1" as="geometry">
            <mxPoint x="-840" y="250" as="sourcePoint" />
            <mxPoint x="-790" y="200" as="targetPoint" />
          </mxGeometry>
        </mxCell>
        <mxCell id="dcjSAABYrTXb6upPmTin-0" value="file type" style="rounded=0;whiteSpace=wrap;html=1;" vertex="1" parent="WIyWlLk6GJQsqaUBKTNV-1">
          <mxGeometry x="-675" y="39" width="95" height="40" as="geometry" />
        </mxCell>
        <mxCell id="dcjSAABYrTXb6upPmTin-1" value="" style="swimlane;startSize=0;" vertex="1" parent="WIyWlLk6GJQsqaUBKTNV-1">
          <mxGeometry x="-770" y="20" width="260" height="280" as="geometry" />
        </mxCell>
        <mxCell id="j0SL_xLkmIAa-dE_FRkC-60" value="document" style="rounded=0;whiteSpace=wrap;html=1;strokeWidth=3;" parent="dcjSAABYrTXb6upPmTin-1" vertex="1">
          <mxGeometry x="97.5" y="160" width="90" height="43" as="geometry" />
        </mxCell>
        <mxCell id="j0SL_xLkmIAa-dE_FRkC-70" value="" style="group" parent="dcjSAABYrTXb6upPmTin-1" vertex="1" connectable="0">
          <mxGeometry x="155" y="223" width="80" height="40" as="geometry" />
        </mxCell>
        <mxCell id="j0SL_xLkmIAa-dE_FRkC-67" value="file name" style="ellipse;whiteSpace=wrap;html=1;" parent="j0SL_xLkmIAa-dE_FRkC-70" vertex="1">
          <mxGeometry width="80" height="40" as="geometry" />
        </mxCell>
        <mxCell id="j0SL_xLkmIAa-dE_FRkC-69" value="" style="endArrow=none;dashed=1;html=1;rounded=0;" parent="j0SL_xLkmIAa-dE_FRkC-70" edge="1">
          <mxGeometry width="50" height="50" relative="1" as="geometry">
            <mxPoint x="65" y="30" as="sourcePoint" />
            <mxPoint x="14.997641229808323" y="29.995355223117144" as="targetPoint" />
          </mxGeometry>
        </mxCell>
        <mxCell id="j0SL_xLkmIAa-dE_FRkC-78" value="" style="endArrow=none;html=1;rounded=0;entryX=1;entryY=1;entryDx=0;entryDy=0;exitX=0.5;exitY=0;exitDx=0;exitDy=0;" parent="dcjSAABYrTXb6upPmTin-1" source="j0SL_xLkmIAa-dE_FRkC-67" target="j0SL_xLkmIAa-dE_FRkC-60" edge="1">
          <mxGeometry width="50" height="50" relative="1" as="geometry">
            <mxPoint x="305" y="283" as="sourcePoint" />
            <mxPoint x="355" y="233" as="targetPoint" />
          </mxGeometry>
        </mxCell>
        <mxCell id="j0SL_xLkmIAa-dE_FRkC-83" value="" style="endArrow=none;html=1;rounded=0;entryX=-0.016;entryY=0.9;entryDx=0;entryDy=0;exitX=1;exitY=0;exitDx=0;exitDy=0;entryPerimeter=0;" parent="dcjSAABYrTXb6upPmTin-1" source="j0SL_xLkmIAa-dE_FRkC-84" target="j0SL_xLkmIAa-dE_FRkC-60" edge="1">
          <mxGeometry width="50" height="50" relative="1" as="geometry">
            <mxPoint x="15" y="213" as="sourcePoint" />
            <mxPoint x="305" y="223" as="targetPoint" />
          </mxGeometry>
        </mxCell>
        <mxCell id="j0SL_xLkmIAa-dE_FRkC-84" value="file size" style="ellipse;whiteSpace=wrap;html=1;" parent="dcjSAABYrTXb6upPmTin-1" vertex="1">
          <mxGeometry x="30" y="223" width="80" height="40" as="geometry" />
        </mxCell>
        <mxCell id="j0SL_xLkmIAa-dE_FRkC-100" value="" style="endArrow=classic;html=1;rounded=0;exitX=0.5;exitY=0;exitDx=0;exitDy=0;strokeWidth=3;entryX=0.5;entryY=1;entryDx=0;entryDy=0;" parent="WIyWlLk6GJQsqaUBKTNV-1" source="j0SL_xLkmIAa-dE_FRkC-60" target="dcjSAABYrTXb6upPmTin-0" edge="1">
          <mxGeometry width="50" height="50" relative="1" as="geometry">
            <mxPoint x="-547.4999999999998" y="221" as="sourcePoint" />
            <mxPoint x="-534.9999999999998" y="50" as="targetPoint" />
          </mxGeometry>
        </mxCell>
        <mxCell id="dcjSAABYrTXb6upPmTin-3" value="" style="endArrow=none;html=1;rounded=0;entryX=1.01;entryY=0.632;entryDx=0;entryDy=0;entryPerimeter=0;exitX=0;exitY=0.5;exitDx=0;exitDy=0;" edge="1" parent="WIyWlLk6GJQsqaUBKTNV-1" source="j0SL_xLkmIAa-dE_FRkC-79" target="dcjSAABYrTXb6upPmTin-1">
          <mxGeometry width="50" height="50" relative="1" as="geometry">
            <mxPoint x="-620" y="260" as="sourcePoint" />
            <mxPoint x="-570" y="210" as="targetPoint" />
          </mxGeometry>
        </mxCell>
        <mxCell id="dcjSAABYrTXb6upPmTin-4" value="" style="endArrow=none;html=1;rounded=0;entryX=0.5;entryY=1;entryDx=0;entryDy=0;exitX=1;exitY=0.5;exitDx=0;exitDy=0;" edge="1" parent="WIyWlLk6GJQsqaUBKTNV-1" source="j0SL_xLkmIAa-dE_FRkC-85" target="j0SL_xLkmIAa-dE_FRkC-60">
          <mxGeometry width="50" height="50" relative="1" as="geometry">
            <mxPoint x="-620" y="260" as="sourcePoint" />
            <mxPoint x="-570" y="210" as="targetPoint" />
            <Array as="points" />
          </mxGeometry>
        </mxCell>
      </root>
    </mxGraphModel>
  </diagram>
</mxfile>
